<svg xmlns="http://www.w3.org/2000/svg" width="166.68" height="35" viewBox="0 0 166.68 35"><rect class="svg__rect" x="0" y="0" width="78.05" height="35" fill="#31C4F3"/><rect class="svg__rect" x="76.05" y="0" width="90.63" height="35" fill="#389AD5"/><path class="svg__text" d="M17.33 22L14.22 22L14.22 13.47L17.14 13.47Q18.59 13.47 19.34 14.05Q20.10 14.63 20.10 15.78L20.10 15.78Q20.10 16.36 19.78 16.83Q19.47 17.30 18.86 17.56L18.86 17.56Q19.55 17.75 19.93 18.26Q20.31 18.78 20.31 19.51L20.31 19.51Q20.31 20.71 19.53 21.36Q18.76 22 17.33 22L17.33 22ZM15.70 18.15L15.70 20.82L17.35 20.82Q18.04 20.82 18.44 20.47Q18.83 20.13 18.83 19.51L18.83 19.51Q18.83 18.18 17.47 18.15L17.47 18.15L15.70 18.15ZM15.70 14.66L15.70 17.06L17.15 17.06Q17.84 17.06 18.23 16.75Q18.62 16.43 18.62 15.86L18.62 15.86Q18.62 15.23 18.26 14.95Q17.90 14.66 17.14 14.66L17.14 14.66L15.70 14.66ZM26.34 22L24.86 22L24.86 13.47L26.34 13.47L26.34 22ZM40.24 22L37.13 22L37.13 13.47L40.05 13.47Q41.50 13.47 42.25 14.05Q43.01 14.63 43.01 15.78L43.01 15.78Q43.01 16.36 42.69 16.83Q42.38 17.30 41.77 17.56L41.77 17.56Q42.46 17.75 42.84 18.26Q43.22 18.78 43.22 19.51L43.22 19.51Q43.22 20.71 42.44 21.36Q41.67 22 40.24 22L40.24 22ZM38.61 18.15L38.61 20.82L40.26 20.82Q40.95 20.82 41.35 20.47Q41.74 20.13 41.74 19.51L41.74 19.51Q41.74 18.18 40.38 18.15L40.38 18.15L38.61 18.15ZM38.61 14.66L38.61 17.06L40.06 17.06Q40.75 17.06 41.14 16.75Q41.53 16.43 41.53 15.86L41.53 15.86Q41.53 15.23 41.17 14.95Q40.81 14.66 40.05 14.66L40.05 14.66L38.61 14.66ZM53.26 22L47.69 22L47.69 13.47L53.22 13.47L53.22 14.66L49.17 14.66L49.17 17.02L52.67 17.02L52.67 18.19L49.17 18.19L49.17 20.82L53.26 20.82L53.26 22ZM57.19 18.00L57.19 18.00L57.19 17.52Q57.19 16.28 57.63 15.32Q58.07 14.37 58.88 13.86Q59.69 13.35 60.73 13.35Q61.77 13.35 62.58 13.85Q63.38 14.35 63.82 15.29Q64.26 16.23 64.27 17.48L64.27 17.48L64.27 17.96Q64.27 19.21 63.83 20.16Q63.40 21.10 62.60 21.61Q61.79 22.12 60.74 22.12L60.74 22.12Q59.70 22.12 58.89 21.61Q58.08 21.10 57.64 20.17Q57.20 19.23 57.19 18.00ZM58.67 17.46L58.67 17.96Q58.67 19.36 59.22 20.13Q59.77 20.90 60.74 20.90L60.74 20.90Q61.73 20.90 62.26 20.15Q62.79 19.40 62.79 17.96L62.79 17.96L62.79 17.51Q62.79 16.09 62.25 15.34Q61.71 14.58 60.73 14.58L60.73 14.58Q59.77 14.58 59.23 15.33Q58.68 16.09 58.67 17.46L58.67 17.46Z" fill="#FFFFFF"/><path class="svg__text" d="M92.09 22L89.38 22L92.44 17.75L89.51 13.60L92.18 13.60L93.86 16.02L95.52 13.60L98.09 13.60L95.16 17.66L98.28 22L95.55 22L93.81 19.40L92.09 22ZM109.31 22L102.57 22L102.57 13.60L109.16 13.60L109.16 15.44L104.92 15.44L104.92 16.85L108.65 16.85L108.65 18.63L104.92 18.63L104.92 20.17L109.31 20.17L109.31 22ZM116.31 22L114.11 22L114.11 13.60L116.07 13.60L119.02 18.45L121.91 13.60L123.86 13.60L123.88 22L121.70 22L121.68 17.55L119.52 21.17L118.46 21.17L116.31 17.67L116.31 22ZM135.43 21.24L135.43 21.24L136.21 19.49Q136.77 19.86 137.52 20.09Q138.26 20.32 138.98 20.32L138.98 20.32Q140.35 20.32 140.35 19.64L140.35 19.64Q140.35 19.28 139.96 19.11Q139.57 18.93 138.71 18.74L138.71 18.74Q137.76 18.53 137.12 18.30Q136.49 18.06 136.03 17.55Q135.58 17.03 135.58 16.16L135.58 16.16Q135.58 15.39 136.00 14.77Q136.42 14.15 137.25 13.79Q138.09 13.43 139.29 13.43L139.29 13.43Q140.12 13.43 140.92 13.62Q141.73 13.80 142.35 14.17L142.35 14.17L141.61 15.93Q140.41 15.28 139.28 15.28L139.28 15.28Q138.57 15.28 138.25 15.49Q137.93 15.70 137.93 16.04L137.93 16.04Q137.93 16.37 138.31 16.54Q138.69 16.71 139.54 16.89L139.54 16.89Q140.51 17.10 141.14 17.33Q141.77 17.56 142.23 18.07Q142.69 18.58 142.69 19.46L142.69 19.46Q142.69 20.21 142.27 20.83Q141.85 21.44 141.01 21.80Q140.17 22.17 138.97 22.17L138.97 22.17Q137.95 22.17 136.99 21.92Q136.03 21.67 135.43 21.24ZM154.01 22L147.27 22L147.27 13.60L153.86 13.60L153.86 15.44L149.62 15.44L149.62 16.85L153.36 16.85L153.36 18.63L149.62 18.63L149.62 20.17L154.01 20.17L154.01 22Z" fill="#FFFFFF" x="89.05"/></svg>