<svg width="245" height="64" viewBox="0 0 245 64" fill="none" xmlns="http://www.w3.org/2000/svg">
<path d="M17.228 45.64C15.724 45.64 14.348 45.448 13.1 45.064C11.852 44.712 10.86 44.104 10.124 43.24C9.38803 42.408 9.02003 41.256 9.02003 39.784C9.02003 38.536 9.34003 37.352 9.98003 36.232C10.62 35.112 11.484 34.12 12.572 33.256C13.66 32.392 14.86 31.752 16.172 31.336C16.684 31.176 17.26 31.032 17.9 30.904C18.572 30.744 19.164 30.664 19.676 30.664C20.188 30.664 20.444 30.904 20.444 31.384C20.444 31.736 20.236 31.96 19.82 32.056C19.308 32.184 18.78 32.28 18.236 32.344C17.724 32.376 17.196 32.472 16.652 32.632C15.564 32.984 14.54 33.528 13.58 34.264C12.652 34.968 11.9 35.8 11.324 36.76C10.78 37.688 10.508 38.68 10.508 39.736C10.508 40.92 10.828 41.848 11.468 42.52C12.108 43.192 12.94 43.672 13.964 43.96C14.988 44.248 16.092 44.392 17.276 44.392C18.94 44.392 20.78 44.168 22.796 43.72C24.844 43.304 26.908 42.696 28.988 41.896C31.068 41.096 33.036 40.152 34.892 39.064C36.748 37.976 38.348 36.776 39.692 35.464C41.036 34.152 41.964 32.76 42.476 31.288C42.572 31.032 42.652 30.76 42.716 30.472C42.78 30.184 42.812 29.896 42.812 29.608C42.812 28.712 42.572 28.024 42.092 27.544C41.644 27.032 41.036 26.664 40.268 26.44C39.532 26.184 38.732 26.024 37.868 25.96C37.036 25.896 36.236 25.864 35.468 25.864C33.804 25.864 32.124 25.944 30.428 26.104C28.764 26.232 27.084 26.296 25.388 26.296C24.428 26.296 23.42 26.216 22.364 26.056C21.308 25.896 20.412 25.56 19.676 25.048C18.972 24.536 18.62 23.752 18.62 22.696C18.62 21.32 19.052 20.104 19.916 19.048C20.78 17.992 21.916 17.08 23.324 16.312C24.764 15.544 26.316 14.92 27.98 14.44C29.676 13.928 31.34 13.56 32.972 13.336C34.604 13.112 36.06 13 37.34 13C38.076 13 38.924 13.048 39.884 13.144C40.844 13.208 41.772 13.368 42.668 13.624C43.596 13.88 44.348 14.28 44.924 14.824C45.532 15.336 45.836 16.024 45.836 16.888C45.836 17.592 45.66 18.104 45.308 18.424C44.956 18.744 44.492 19.112 43.916 19.528C43.852 19.56 43.772 19.608 43.676 19.672C43.612 19.704 43.516 19.72 43.388 19.72C43.196 19.72 43.004 19.656 42.812 19.528C42.652 19.368 42.572 19.192 42.572 19C42.572 18.712 42.716 18.504 43.004 18.376C43.292 18.248 43.564 18.088 43.82 17.896C44.108 17.704 44.252 17.368 44.252 16.888C44.252 16.312 43.98 15.864 43.436 15.544C42.924 15.192 42.268 14.936 41.468 14.776C40.7 14.616 39.932 14.52 39.164 14.488C38.428 14.424 37.82 14.392 37.34 14.392C36.284 14.392 35.068 14.488 33.692 14.68C32.316 14.84 30.892 15.112 29.42 15.496C27.98 15.848 26.604 16.312 25.292 16.888C24.012 17.464 22.924 18.168 22.028 19C21.164 19.8 20.604 20.744 20.348 21.832C20.316 21.96 20.284 22.088 20.252 22.216C20.252 22.312 20.252 22.424 20.252 22.552C20.252 23.32 20.556 23.88 21.164 24.232C21.772 24.552 22.492 24.744 23.324 24.808C24.156 24.872 24.892 24.904 25.532 24.904C27.228 24.904 28.908 24.84 30.572 24.712C32.236 24.584 33.9 24.52 35.564 24.52C36.556 24.52 37.564 24.584 38.588 24.712C39.644 24.808 40.604 25.032 41.468 25.384C42.364 25.704 43.084 26.2 43.628 26.872C44.172 27.512 44.444 28.376 44.444 29.464C44.444 30.168 44.3 30.888 44.012 31.624C43.436 33.256 42.444 34.792 41.036 36.232C39.628 37.64 37.948 38.92 35.996 40.072C34.044 41.224 31.964 42.216 29.756 43.048C27.58 43.88 25.404 44.52 23.228 44.968C21.084 45.416 19.084 45.64 17.228 45.64ZM35.8592 59.368C35.2512 59.368 34.8192 59.192 34.5632 58.84C34.2752 58.52 34.1312 58.104 34.1312 57.592C34.1312 56.952 34.2752 56.232 34.5632 55.432C34.8192 54.664 35.1392 53.88 35.5232 53.08C35.8752 52.28 36.2272 51.576 36.5792 50.968C36.9312 50.36 37.1872 49.912 37.3472 49.624C38.1472 48.248 38.9952 46.904 39.8912 45.592C40.7872 44.28 41.7312 42.984 42.7232 41.704C43.6512 40.52 44.5952 39.352 45.5552 38.2C46.5152 37.016 47.5232 35.88 48.5792 34.792C48.6752 34.216 48.7392 33.624 48.7712 33.016C48.8032 32.408 48.8192 31.8 48.8192 31.192C48.8192 30.84 48.8192 30.504 48.8192 30.184C48.8192 29.864 48.8032 29.56 48.7712 29.272C48.7392 29.016 48.6752 28.76 48.5792 28.504C48.4832 28.248 48.3872 28.008 48.2912 27.784C48.2912 27.72 48.2752 27.656 48.2432 27.592C48.2432 27.528 48.2432 27.48 48.2432 27.448C48.2432 27.256 48.4352 27.096 48.8192 26.968C49.2032 26.84 49.5072 26.776 49.7312 26.776C50.2432 26.776 50.5472 27.064 50.6432 27.64C50.7392 28.184 50.7872 28.632 50.7872 28.984C50.7872 29.656 50.7392 30.328 50.6432 31C50.5792 31.64 50.5152 32.28 50.4512 32.92C50.8032 32.568 51.2832 32.12 51.8912 31.576C52.5312 31 53.2032 30.424 53.9072 29.848C54.6432 29.272 55.3632 28.792 56.0672 28.408C56.8032 28.024 57.4592 27.832 58.0352 27.832C58.9632 27.832 59.6672 28.168 60.1472 28.84C60.6592 29.48 60.9952 30.216 61.1552 31.048C61.3472 31.88 61.4272 32.6 61.3952 33.208C61.6832 33.144 62.2272 33.096 63.0272 33.064C63.8592 33 64.5312 32.968 65.0432 32.968C65.4592 32.968 65.7152 33.032 65.8112 33.16C65.9392 33.256 66.0032 33.384 66.0032 33.544C66.0032 33.64 65.9552 33.752 65.8592 33.88C65.7632 34.008 65.5872 34.088 65.3312 34.12C64.9472 34.152 64.4672 34.216 63.8912 34.312C63.3472 34.376 62.8192 34.456 62.3072 34.552C61.7952 34.616 61.4112 34.696 61.1552 34.792C60.8992 35.88 60.3872 37 59.6192 38.152C58.8512 39.272 57.9072 40.328 56.7872 41.32C55.6672 42.28 54.4512 43.048 53.1392 43.624C51.8272 44.232 50.4992 44.536 49.1552 44.536C48.7712 44.536 48.3552 44.488 47.9072 44.392L47.6192 45.112C47.1392 46.2 46.4992 47.496 45.6992 49C44.9312 50.536 44.0352 52.024 43.0112 53.464C42.7232 53.848 42.3232 54.36 41.8112 55C41.2992 55.672 40.7232 56.328 40.0832 56.968C39.4112 57.64 38.7072 58.2 37.9712 58.648C37.2352 59.128 36.5312 59.368 35.8592 59.368ZM49.7312 37.768C51.2992 36.712 52.8992 35.848 54.5312 35.176C56.1632 34.504 57.9232 33.96 59.8112 33.544C59.9072 33 59.9552 32.472 59.9552 31.96C59.9552 31.64 59.9072 31.272 59.8112 30.856C59.7472 30.408 59.5872 30.008 59.3312 29.656C59.1072 29.304 58.7552 29.128 58.2752 29.128C57.7632 29.128 57.1072 29.4 56.3072 29.944C55.5392 30.456 54.7232 31.08 53.8592 31.816C53.0272 32.552 52.2592 33.256 51.5552 33.928C50.8512 34.6 50.3552 35.096 50.0672 35.416L49.7312 37.768ZM49.5392 43.192C50.8192 43.192 52.0672 42.84 53.2832 42.136C54.5312 41.4 55.6352 40.52 56.5952 39.496C57.5872 38.472 58.3232 37.512 58.8032 36.616C58.9312 36.36 59.0432 36.104 59.1392 35.848C59.2352 35.592 59.3472 35.352 59.4752 35.128C57.4592 35.64 55.6192 36.28 53.9552 37.048C52.3232 37.784 50.7232 38.76 49.1552 39.976C49.0272 40.488 48.8992 41 48.7712 41.512C48.6752 41.992 48.5472 42.488 48.3872 43C48.6752 43.128 49.0592 43.192 49.5392 43.192ZM36.2912 57.784C36.7392 57.784 37.2672 57.528 37.8752 57.016C38.4512 56.536 39.0592 55.944 39.6992 55.24C40.3072 54.536 40.8512 53.864 41.3312 53.224C41.8112 52.584 42.1472 52.12 42.3392 51.832C43.3312 50.328 44.1952 48.792 44.9312 47.224C45.6672 45.688 46.1632 44.424 46.4192 43.432C46.3232 43.272 46.2592 43.096 46.2272 42.904C46.1952 42.712 46.1792 42.52 46.1792 42.328C46.1792 41.752 46.3232 41.192 46.6112 40.648C46.8992 40.104 47.2672 39.624 47.7152 39.208C47.7792 38.984 47.8432 38.744 47.9072 38.488C47.9712 38.232 48.0192 37.976 48.0512 37.72C47.1552 38.744 46.3872 39.624 45.7472 40.36C45.1392 41.096 44.5632 41.816 44.0192 42.52C43.0272 43.8 42.0832 45.096 41.1872 46.408C40.2912 47.72 39.4432 49.08 38.6432 50.488C38.4832 50.776 38.2432 51.208 37.9232 51.784C37.6032 52.36 37.2832 52.984 36.9632 53.656C36.6112 54.36 36.3232 55.016 36.0992 55.624C35.8752 56.264 35.7632 56.776 35.7632 57.16C35.7632 57.576 35.9392 57.784 36.2912 57.784ZM73.514 23.416C73.354 23.416 73.178 23.384 72.986 23.32C72.794 23.256 72.698 23.112 72.698 22.888C72.698 22.728 72.746 22.584 72.842 22.456C73.098 21.976 73.562 21.56 74.234 21.208C74.938 20.856 75.466 20.68 75.818 20.68C75.978 20.68 76.154 20.728 76.346 20.824C76.538 20.888 76.634 21.032 76.634 21.256C76.634 21.8 76.298 22.296 75.626 22.744C74.986 23.192 74.282 23.416 73.514 23.416ZM68.138 43.048C67.05 43.048 66.186 42.744 65.546 42.136C64.906 41.528 64.586 40.68 64.586 39.592C64.586 38.952 64.65 38.328 64.778 37.72C64.906 37.08 65.082 36.456 65.306 35.848C65.434 35.496 65.69 34.92 66.074 34.12C66.49 33.288 66.97 32.424 67.514 31.528C68.058 30.6 68.586 29.816 69.098 29.176C69.61 28.536 70.058 28.216 70.442 28.216C70.602 28.216 70.81 28.28 71.066 28.408C71.354 28.504 71.498 28.664 71.498 28.888C71.498 29.016 71.434 29.176 71.306 29.368C70.57 30.2 69.802 31.192 69.002 32.344C68.202 33.496 67.53 34.696 66.986 35.944C66.442 37.192 66.17 38.392 66.17 39.544C66.17 41.016 66.874 41.752 68.282 41.752C69.242 41.752 70.202 41.288 71.162 40.36C72.154 39.432 73.242 38.184 74.426 36.616C74.778 36.168 75.082 35.736 75.338 35.32C75.626 34.872 75.882 34.488 76.106 34.168C76.33 33.944 76.57 33.832 76.826 33.832C77.21 33.832 77.402 33.976 77.402 34.264C77.402 34.616 77.146 35.176 76.634 35.944C76.122 36.712 75.546 37.512 74.906 38.344C73.658 39.88 72.57 41.048 71.642 41.848C70.714 42.648 69.546 43.048 68.138 43.048ZM75.7704 43.048C75.2584 43.048 75.0024 42.824 75.0024 42.376C75.0024 42.312 75.1304 41.96 75.3864 41.32C75.6744 40.68 76.0104 39.944 76.3944 39.112C76.7784 38.28 77.1304 37.512 77.4504 36.808C77.7704 36.072 77.9784 35.608 78.0744 35.416C78.0424 35.256 77.9464 34.936 77.7864 34.456C77.6584 33.944 77.5944 33.464 77.5944 33.016C77.5944 32.664 77.6584 32.376 77.7864 32.152C77.9144 31.896 78.1384 31.768 78.4584 31.768C78.6184 31.768 78.7944 31.864 78.9864 32.056C79.2104 32.248 79.3704 32.376 79.4664 32.44C79.7224 31.96 79.9464 31.48 80.1384 31C80.3304 30.52 80.5384 30.04 80.7624 29.56C81.8504 27.032 82.8904 24.584 83.8824 22.216C84.8744 19.816 85.9624 17.368 87.1464 14.872C87.3064 14.584 87.5144 14.36 87.7704 14.2C88.0584 14.04 88.3144 13.96 88.5384 13.96C89.0184 13.96 89.2584 14.168 89.2584 14.584C89.2584 14.84 89.0824 15.416 88.7304 16.312C88.4104 17.176 87.9624 18.216 87.3864 19.432C86.8424 20.648 86.2504 21.928 85.6104 23.272C84.9704 24.584 84.3464 25.864 83.7384 27.112C83.1304 28.328 82.6024 29.384 82.1544 30.28C81.7064 31.176 81.4024 31.784 81.2424 32.104L81.4824 32.2C82.4424 30.888 83.4984 29.672 84.6504 28.552C85.8344 27.4 87.2264 26.456 88.8264 25.72C89.8184 25.272 90.7144 25.048 91.5144 25.048C92.2184 25.048 92.7784 25.208 93.1944 25.528C93.6424 25.848 93.8664 26.28 93.8664 26.824C93.8664 27.464 93.5464 28.2 92.9064 29.032C92.3944 29.672 91.7224 30.28 90.8904 30.856C90.0904 31.432 89.2744 31.928 88.4424 32.344C87.6104 32.76 86.8584 33.08 86.1864 33.304C85.4824 33.528 84.7784 33.704 84.0744 33.832C83.4024 33.96 82.6984 34.088 81.9624 34.216C81.6104 34.248 81.2744 34.408 80.9544 34.696C80.6664 34.952 80.4904 35.208 80.4264 35.464C80.6184 36.232 80.9704 37.096 81.4824 38.056C81.9944 39.016 82.6504 39.848 83.4504 40.552C84.2504 41.224 85.1784 41.56 86.2344 41.56C87.2904 41.56 88.2344 41.192 89.0664 40.456C89.9304 39.72 90.7464 38.792 91.5144 37.672C92.3144 36.52 93.1464 35.352 94.0104 34.168C94.1704 33.976 94.3784 33.88 94.6344 33.88H94.7304C95.0504 33.88 95.2104 34.12 95.2104 34.6C95.2104 34.728 95.1624 34.872 95.0664 35.032C94.7144 35.576 94.2504 36.28 93.6744 37.144C93.0984 38.008 92.4264 38.888 91.6584 39.784C90.9224 40.648 90.0904 41.384 89.1624 41.992C88.2344 42.6 87.2584 42.904 86.2344 42.904C85.0184 42.904 83.9304 42.632 82.9704 42.088C82.0424 41.544 81.2584 40.84 80.6184 39.976C80.0104 39.08 79.5624 38.168 79.2744 37.24C78.7944 38.136 78.3464 39.048 77.9304 39.976C77.5464 40.904 77.0824 41.784 76.5384 42.616C76.4744 42.712 76.3624 42.808 76.2024 42.904C76.0744 43 75.9304 43.048 75.7704 43.048ZM83.2104 32.584C83.9144 32.488 84.7304 32.312 85.6584 32.056C86.6184 31.768 87.5624 31.4 88.4904 30.952C89.4184 30.504 90.1864 29.976 90.7944 29.368C91.1144 29.048 91.3864 28.696 91.6104 28.312C91.8344 27.896 91.9464 27.528 91.9464 27.208C91.9464 26.728 91.7064 26.488 91.2264 26.488C90.7464 26.488 89.9624 26.792 88.8744 27.4C87.7224 28.072 86.6664 28.856 85.7064 29.752C84.7784 30.616 83.9464 31.56 83.2104 32.584ZM97.3258 43.48C95.6618 43.48 94.4938 43 93.8218 42.04C93.1818 41.048 92.8618 39.896 92.8618 38.584C92.8618 37.624 93.1018 36.488 93.5818 35.176C94.0618 33.832 94.7178 32.52 95.5498 31.24C96.4138 29.96 97.4058 28.904 98.5258 28.072C99.6458 27.208 100.846 26.776 102.126 26.776C102.958 26.776 103.614 27.016 104.094 27.496C104.606 27.944 104.862 28.52 104.862 29.224C104.862 30.568 104.43 31.864 103.566 33.112C102.702 34.36 101.582 35.384 100.206 36.184C98.8298 36.984 97.3578 37.384 95.7898 37.384C95.5978 37.384 95.4058 37.384 95.2138 37.384C95.0218 37.352 94.8298 37.32 94.6378 37.288C94.5418 37.704 94.4938 38.184 94.4938 38.728C94.4938 39.56 94.6858 40.328 95.0698 41.032C95.4858 41.736 96.2698 42.088 97.4218 42.088C98.3818 42.088 99.3098 41.848 100.206 41.368C101.102 40.888 101.854 40.344 102.462 39.736C103.07 39.128 103.582 38.584 103.998 38.104C104.414 37.624 104.846 37.08 105.294 36.472C105.742 35.832 106.302 35 106.974 33.976C107.102 33.752 107.294 33.64 107.55 33.64C107.998 33.64 108.222 33.88 108.222 34.36C108.222 34.52 108.19 34.648 108.126 34.744C107.262 36.216 106.302 37.624 105.246 38.968C104.19 40.28 103.006 41.368 101.694 42.232C100.414 43.064 98.9578 43.48 97.3258 43.48ZM96.1258 35.896C97.3418 35.896 98.4778 35.576 99.5338 34.936C100.622 34.264 101.502 33.432 102.174 32.44C102.878 31.448 103.23 30.44 103.23 29.416C103.23 29.064 103.134 28.776 102.942 28.552C102.782 28.328 102.494 28.216 102.078 28.216C101.246 28.216 100.446 28.504 99.6778 29.08C98.9098 29.624 98.2058 30.328 97.5658 31.192C96.9578 32.024 96.4298 32.856 95.9818 33.688C95.5658 34.52 95.2618 35.224 95.0698 35.8C95.2298 35.832 95.3898 35.864 95.5498 35.896C95.7418 35.896 95.9338 35.896 96.1258 35.896ZM112.088 48.28C111.352 48.28 110.504 48.2 109.544 48.04C108.616 47.912 107.8 47.624 107.096 47.176C106.424 46.76 106.088 46.136 106.088 45.304C106.088 44.568 106.328 43.816 106.808 43.048C107.32 42.312 107.944 41.608 108.68 40.936C109.448 40.264 110.248 39.672 111.08 39.16C111.944 38.616 112.712 38.184 113.384 37.864C113.992 36.424 114.776 34.856 115.736 33.16C116.728 31.432 117.832 29.72 119.048 28.024C120.296 26.296 121.592 24.696 122.936 23.224C124.312 21.72 125.672 20.44 127.016 19.384C127.304 19.16 127.768 18.84 128.408 18.424C129.048 18.008 129.576 17.8 129.992 17.8C130.504 17.8 130.76 18.024 130.76 18.472C130.76 18.632 130.712 18.76 130.616 18.856C130.52 18.952 130.392 19.032 130.232 19.096C129.816 19.288 129.432 19.496 129.08 19.72C128.728 19.912 128.376 20.136 128.024 20.392C126.776 21.288 125.544 22.424 124.328 23.8C123.112 25.144 121.944 26.584 120.824 28.12C119.736 29.656 118.728 31.192 117.8 32.728C116.904 34.264 116.152 35.672 115.544 36.952C116.856 36.504 118.296 36.168 119.864 35.944C121.432 35.72 122.92 35.608 124.328 35.608C124.712 35.608 125.224 35.64 125.864 35.704C126.504 35.736 127.144 35.816 127.784 35.944C128.456 36.072 129.016 36.28 129.464 36.568C129.912 36.856 130.136 37.24 130.136 37.72C130.136 38.2 129.88 38.44 129.368 38.44C129.144 38.44 128.984 38.392 128.888 38.296C128.792 38.2 128.696 38.088 128.6 37.96C128.28 37.512 127.704 37.24 126.872 37.144C126.072 37.048 125.352 37 124.712 37C122.984 37 121.272 37.128 119.576 37.384C117.912 37.64 116.312 38.104 114.776 38.776C114.552 39.352 114.36 39.96 114.2 40.6C114.04 41.24 113.96 41.864 113.96 42.472C113.96 43.304 114.072 43.832 114.296 44.056C114.552 44.28 114.792 44.408 115.016 44.44C115.24 44.504 115.352 44.712 115.352 45.064C115.352 45.256 115.288 45.432 115.16 45.592C115.032 45.752 114.84 45.832 114.584 45.832C114.072 45.832 113.64 45.656 113.288 45.304C112.968 44.952 112.728 44.52 112.568 44.008C112.44 43.528 112.376 43.112 112.376 42.76C112.376 42.248 112.424 41.752 112.52 41.272C112.616 40.76 112.728 40.264 112.856 39.784C112.312 40.072 111.624 40.504 110.792 41.08C109.992 41.656 109.288 42.296 108.68 43C108.072 43.672 107.768 44.344 107.768 45.016C107.768 45.56 108.024 45.96 108.536 46.216C109.08 46.504 109.688 46.68 110.36 46.744C111.032 46.84 111.592 46.888 112.04 46.888C113.352 46.888 114.824 46.728 116.456 46.408C118.12 46.12 119.832 45.688 121.592 45.112C123.384 44.568 125.112 43.896 126.776 43.096C128.472 42.296 129.992 41.4 131.336 40.408C132.68 39.384 133.752 38.28 134.552 37.096C135.352 35.912 135.752 34.664 135.752 33.352C135.752 31.784 135.144 30.456 133.928 29.368C132.744 28.248 131.336 27.448 129.704 26.968C129.352 26.872 128.984 26.808 128.6 26.776C128.248 26.712 127.896 26.648 127.544 26.584C127.32 26.52 127.128 26.44 126.968 26.344C126.84 26.248 126.776 26.088 126.776 25.864C126.776 25.512 127.016 25.288 127.496 25.192C127.944 25.096 128.376 25.032 128.792 25C129.24 24.968 129.672 24.904 130.088 24.808C131.176 24.584 132.312 24.28 133.496 23.896C134.68 23.48 135.8 22.984 136.856 22.408C137.912 21.8 138.776 21.096 139.448 20.296C139.8 19.848 140.072 19.384 140.264 18.904C140.488 18.424 140.6 17.928 140.6 17.416C140.6 16.456 140.296 15.624 139.688 14.92C139.08 14.216 138.296 13.64 137.336 13.192C136.408 12.712 135.416 12.344 134.36 12.088C133.304 11.8 132.328 11.608 131.432 11.512C130.344 11.416 129.224 11.368 128.072 11.368C125.576 11.368 123.112 11.688 120.68 12.328C118.28 12.936 116.088 13.912 114.104 15.256C113.08 15.928 112.056 16.76 111.032 17.752C110.04 18.744 109.208 19.816 108.536 20.968C107.896 22.088 107.576 23.256 107.576 24.472C107.576 25.048 107.688 25.48 107.912 25.768C108.136 26.024 108.344 26.232 108.536 26.392C108.76 26.52 108.872 26.696 108.872 26.92C108.872 27.112 108.792 27.288 108.632 27.448C108.472 27.608 108.28 27.688 108.056 27.688C107.608 27.688 107.224 27.496 106.904 27.112C106.616 26.696 106.392 26.232 106.232 25.72C106.072 25.208 105.992 24.808 105.992 24.52C105.992 23.176 106.344 21.864 107.048 20.584C107.784 19.304 108.696 18.12 109.784 17.032C110.872 15.912 111.992 14.968 113.144 14.2C115.32 12.76 117.704 11.704 120.296 11.032C122.888 10.36 125.544 10.024 128.264 10.024C129.416 10.024 130.536 10.072 131.624 10.168C132.744 10.264 133.912 10.488 135.128 10.84C136.376 11.16 137.528 11.624 138.584 12.232C139.64 12.808 140.504 13.528 141.176 14.392C141.848 15.224 142.184 16.216 142.184 17.368C142.184 18.584 141.832 19.672 141.128 20.632C140.424 21.56 139.512 22.376 138.392 23.08C137.304 23.752 136.12 24.328 134.84 24.808C133.592 25.288 132.392 25.672 131.24 25.96C132.936 26.664 134.376 27.64 135.56 28.888C136.744 30.136 137.336 31.608 137.336 33.304C137.336 34.776 136.92 36.168 136.088 37.48C135.256 38.792 134.136 40.008 132.728 41.128C131.352 42.216 129.784 43.208 128.024 44.104C126.264 45 124.424 45.752 122.504 46.36C120.616 46.968 118.776 47.432 116.984 47.752C115.192 48.104 113.56 48.28 112.088 48.28ZM141.84 44.104C140.976 44.104 140.288 43.88 139.776 43.432C139.264 42.984 138.88 42.44 138.624 41.8C138.4 41.128 138.288 40.504 138.288 39.928C138.288 39.16 138.432 38.312 138.72 37.384C139.008 36.424 139.264 35.768 139.488 35.416C139.488 35.32 139.472 35.224 139.44 35.128C139.44 35 139.44 34.888 139.44 34.792C139.44 33.928 139.568 33.032 139.824 32.104C140.112 31.016 140.624 30.024 141.36 29.128C142.096 28.2 143.008 27.448 144.096 26.872C145.216 26.296 146.432 26.008 147.744 26.008C149.28 26.008 150.464 26.424 151.296 27.256C152.128 28.056 152.544 29.112 152.544 30.424C152.544 32.248 152.208 33.816 151.536 35.128C150.896 36.44 150.208 37.704 149.472 38.92C149.344 39.176 149.232 39.384 149.136 39.544C149.04 39.704 149.136 39.784 149.424 39.784C150.352 39.784 151.264 39.4 152.16 38.632C153.056 37.864 154.192 36.408 155.568 34.264C155.664 34.104 155.76 33.976 155.856 33.88C155.952 33.784 156.096 33.736 156.288 33.736H156.384C156.736 33.736 156.944 33.944 157.008 34.36C157.008 34.456 156.976 34.568 156.912 34.696C156.112 36.104 155.296 37.32 154.464 38.344C153.664 39.368 152.704 40.152 151.584 40.696C150.464 41.208 149.056 41.48 147.36 41.512C146.688 42.152 145.856 42.744 144.864 43.288C143.904 43.832 142.896 44.104 141.84 44.104ZM146.448 39.688H146.928C147.6 38.888 148.24 37.976 148.848 36.952C149.488 35.928 150 34.872 150.384 33.784C150.768 32.664 150.96 31.608 150.96 30.616C150.96 29.688 150.72 28.904 150.24 28.264C149.76 27.592 148.928 27.256 147.744 27.256C146.944 27.256 146.16 27.432 145.392 27.784C144.656 28.104 144.016 28.504 143.472 28.984L143.616 29.176C143.68 29.144 143.776 29.128 143.904 29.128C144.096 29.128 144.272 29.208 144.432 29.368C144.592 29.496 144.672 29.64 144.672 29.8C144.672 29.896 144.656 29.976 144.624 30.04C144.592 30.104 144.544 30.168 144.48 30.232C143.936 31.032 143.408 31.784 142.896 32.488C142.384 33.192 141.904 33.992 141.456 34.888C141.36 35.112 141.248 35.336 141.12 35.56C141.376 36.744 141.968 37.736 142.896 38.536C143.856 39.304 145.04 39.688 146.448 39.688ZM142.128 42.76C142.768 42.76 143.408 42.568 144.048 42.184C144.688 41.768 145.232 41.384 145.68 41.032C143.248 40.776 141.456 39.704 140.304 37.816C140.272 38.04 140.208 38.376 140.112 38.824C140.016 39.272 139.968 39.72 139.968 40.168C139.968 40.808 140.112 41.4 140.4 41.944C140.688 42.488 141.264 42.76 142.128 42.76ZM158.246 43.144C158.086 43.144 157.91 43.096 157.718 43C157.526 42.904 157.43 42.776 157.43 42.616C157.43 42.36 157.478 42.136 157.574 41.944C157.926 41.176 158.374 40.232 158.918 39.112C159.494 37.992 160.054 36.84 160.598 35.656C161.174 34.44 161.654 33.304 162.038 32.248C162.454 31.192 162.662 30.344 162.662 29.704C162.662 29.512 162.614 29.336 162.518 29.176C162.454 28.984 162.294 28.888 162.038 28.888C161.654 28.888 161.27 29.048 160.886 29.368C160.534 29.688 160.214 30.056 159.926 30.472C159.638 30.856 159.398 31.176 159.206 31.432C158.566 32.296 158.022 33.096 157.574 33.832C157.126 34.536 156.662 35.24 156.182 35.944C155.734 36.616 155.174 37.368 154.502 38.2C154.406 38.328 154.294 38.44 154.166 38.536C154.07 38.6 153.926 38.632 153.734 38.632C153.542 38.632 153.382 38.536 153.254 38.344C153.094 38.152 153.062 37.976 153.158 37.816C153.862 36.696 154.55 35.64 155.222 34.648C155.894 33.624 156.486 32.744 156.998 32.008C157.51 31.272 157.862 30.776 158.054 30.52C158.598 29.816 159.158 29.144 159.734 28.504C160.342 27.864 161.158 27.544 162.182 27.544C163.046 27.544 163.638 27.784 163.958 28.264C164.31 28.744 164.486 29.304 164.486 29.944C164.486 31.096 164.006 32.584 163.046 34.408C164.23 33.16 165.494 32.024 166.838 31C168.214 29.976 169.494 29.128 170.678 28.456C171.862 27.752 172.758 27.32 173.366 27.16C173.654 27.064 173.942 26.984 174.23 26.92C174.55 26.856 174.838 26.824 175.094 26.824C175.414 26.824 175.67 26.904 175.862 27.064C176.086 27.224 176.198 27.528 176.198 27.976C176.198 28.424 175.91 29.064 175.334 29.896C174.758 30.696 174.054 31.624 173.222 32.68C172.422 33.704 171.654 34.744 170.918 35.8C170.182 36.856 169.654 37.848 169.334 38.776C169.238 39 169.174 39.224 169.142 39.448C169.11 39.64 169.094 39.816 169.094 39.976C169.094 40.84 169.494 41.272 170.294 41.272C170.806 41.272 171.446 41.016 172.214 40.504C172.662 40.216 173.094 39.896 173.51 39.544C173.958 39.16 174.294 38.824 174.518 38.536C174.998 37.992 175.382 37.528 175.67 37.144C175.99 36.76 176.294 36.344 176.582 35.896C176.902 35.416 177.302 34.824 177.782 34.12C177.878 33.96 177.974 33.848 178.07 33.784C178.166 33.72 178.326 33.688 178.55 33.688C178.902 33.688 179.078 33.912 179.078 34.36C179.078 34.552 178.934 34.888 178.646 35.368C178.358 35.816 178.006 36.328 177.59 36.904C177.206 37.448 176.822 37.96 176.438 38.44C176.086 38.888 175.83 39.208 175.67 39.4C175.318 39.816 174.87 40.248 174.326 40.696C173.814 41.144 173.286 41.528 172.742 41.848C172.23 42.136 171.702 42.344 171.158 42.472C170.614 42.6 170.086 42.664 169.574 42.664C168.742 42.664 168.134 42.424 167.75 41.944C167.398 41.464 167.222 40.952 167.222 40.408C167.222 39.576 167.494 38.632 168.038 37.576C168.614 36.488 169.286 35.416 170.054 34.36C170.854 33.272 171.59 32.296 172.262 31.432C172.966 30.568 173.446 29.944 173.702 29.56C173.766 29.464 173.814 29.384 173.846 29.32C173.878 29.224 173.894 29.144 173.894 29.08C173.894 28.824 173.702 28.696 173.318 28.696C173.126 28.696 172.902 28.744 172.646 28.84C171.334 29.384 169.958 30.184 168.518 31.24C167.11 32.296 165.798 33.448 164.582 34.696C163.398 35.912 162.454 37.064 161.75 38.152L159.83 41.176C159.67 41.432 159.526 41.704 159.398 41.992C159.27 42.248 159.126 42.504 158.966 42.76C158.774 43.016 158.534 43.144 158.246 43.144ZM183.251 23.416C183.059 23.416 182.867 23.384 182.675 23.32C182.515 23.224 182.435 23.08 182.435 22.888C182.435 22.728 182.483 22.584 182.579 22.456C182.835 21.944 183.059 21.64 183.251 21.544C183.443 21.416 183.651 21.352 183.875 21.352C184.099 21.32 184.355 21.208 184.643 21.016C184.835 20.92 184.979 20.84 185.075 20.776C185.203 20.712 185.379 20.68 185.603 20.68H186.371C186.371 21.448 186.067 22.104 185.459 22.648C184.883 23.16 184.147 23.416 183.251 23.416ZM163.283 60.904C162.387 60.904 161.619 60.68 160.979 60.232C160.339 59.816 159.939 59.16 159.779 58.264C159.651 57.336 160.003 56.36 160.835 55.336C161.667 54.312 162.707 53.304 163.955 52.312C164.947 51.512 165.987 50.76 167.075 50.056C168.163 49.384 169.187 48.76 170.147 48.184C171.107 47.64 171.875 47.208 172.451 46.888C173.667 46.152 174.899 45.384 176.147 44.584C177.427 43.816 178.659 43.064 179.843 42.328C180.131 41.752 180.387 40.984 180.611 40.024C180.867 39.032 181.075 37.992 181.235 36.904C181.427 35.784 181.571 34.744 181.667 33.784C181.795 32.792 181.891 32.024 181.955 31.48C182.147 30.744 182.355 30.264 182.579 30.04C182.835 29.784 183.075 29.656 183.299 29.656C183.555 29.656 183.715 29.736 183.779 29.896C183.875 30.056 183.939 30.216 183.971 30.376C184.035 30.984 183.987 31.752 183.827 32.68C183.667 33.608 183.459 34.584 183.203 35.608C182.947 36.632 182.691 37.608 182.435 38.536C182.211 39.464 182.051 40.232 181.955 40.84C183.043 39.944 184.035 38.872 184.931 37.624C185.859 36.344 186.691 35.144 187.427 34.024C187.587 33.768 187.795 33.64 188.051 33.64C188.467 33.64 188.675 33.864 188.675 34.312C188.675 34.44 188.627 34.6 188.531 34.792C187.539 36.392 186.483 37.928 185.363 39.4C184.275 40.84 182.883 42.12 181.187 43.24C180.291 45.8 179.059 48.216 177.491 50.488C175.955 52.792 174.259 54.776 172.403 56.44C170.515 58.136 168.627 59.368 166.739 60.136C165.523 60.648 164.371 60.904 163.283 60.904ZM163.283 59.704C163.667 59.704 164.083 59.64 164.531 59.512C164.979 59.384 165.443 59.224 165.923 59.032C167.843 58.168 169.603 57.032 171.203 55.624C172.771 54.248 174.163 52.712 175.379 51.016C176.563 49.32 177.523 47.624 178.259 45.928C178.355 45.736 178.435 45.544 178.499 45.352C178.595 45.16 178.707 44.968 178.835 44.776C177.875 45.288 176.963 45.832 176.099 46.408C175.235 47.016 174.339 47.576 173.411 48.088C172.899 48.376 172.147 48.808 171.155 49.384C170.163 49.96 169.091 50.6 167.939 51.304C166.787 52.04 165.715 52.808 164.723 53.608C163.731 54.408 162.899 55.208 162.227 56.008C161.555 56.808 161.283 57.528 161.411 58.168C161.507 58.712 161.731 59.096 162.083 59.32C162.403 59.576 162.803 59.704 163.283 59.704ZM190.028 44.104C189.164 44.104 188.476 43.88 187.964 43.432C187.452 42.984 187.068 42.44 186.812 41.8C186.588 41.128 186.476 40.504 186.476 39.928C186.476 39.16 186.62 38.312 186.908 37.384C187.196 36.424 187.452 35.768 187.676 35.416C187.676 35.32 187.66 35.224 187.628 35.128C187.628 35 187.628 34.888 187.628 34.792C187.628 33.928 187.756 33.032 188.012 32.104C188.3 31.016 188.812 30.024 189.548 29.128C190.284 28.2 191.196 27.448 192.284 26.872C193.404 26.296 194.62 26.008 195.932 26.008C197.468 26.008 198.652 26.424 199.484 27.256C200.316 28.056 200.732 29.112 200.732 30.424C200.732 32.248 200.396 33.816 199.724 35.128C199.084 36.44 198.396 37.704 197.66 38.92C197.532 39.176 197.42 39.384 197.324 39.544C197.228 39.704 197.324 39.784 197.612 39.784C198.54 39.784 199.452 39.4 200.348 38.632C201.244 37.864 202.38 36.408 203.756 34.264C203.852 34.104 203.948 33.976 204.044 33.88C204.14 33.784 204.284 33.736 204.476 33.736H204.572C204.924 33.736 205.132 33.944 205.196 34.36C205.196 34.456 205.164 34.568 205.1 34.696C204.3 36.104 203.484 37.32 202.652 38.344C201.852 39.368 200.892 40.152 199.772 40.696C198.652 41.208 197.244 41.48 195.548 41.512C194.876 42.152 194.044 42.744 193.052 43.288C192.092 43.832 191.084 44.104 190.028 44.104ZM194.636 39.688H195.116C195.788 38.888 196.428 37.976 197.036 36.952C197.676 35.928 198.188 34.872 198.572 33.784C198.956 32.664 199.148 31.608 199.148 30.616C199.148 29.688 198.908 28.904 198.428 28.264C197.948 27.592 197.116 27.256 195.932 27.256C195.132 27.256 194.348 27.432 193.58 27.784C192.844 28.104 192.204 28.504 191.66 28.984L191.804 29.176C191.868 29.144 191.964 29.128 192.092 29.128C192.284 29.128 192.46 29.208 192.62 29.368C192.78 29.496 192.86 29.64 192.86 29.8C192.86 29.896 192.844 29.976 192.812 30.04C192.78 30.104 192.732 30.168 192.668 30.232C192.124 31.032 191.596 31.784 191.084 32.488C190.572 33.192 190.092 33.992 189.644 34.888C189.548 35.112 189.436 35.336 189.308 35.56C189.564 36.744 190.156 37.736 191.084 38.536C192.044 39.304 193.228 39.688 194.636 39.688ZM190.316 42.76C190.956 42.76 191.596 42.568 192.236 42.184C192.876 41.768 193.42 41.384 193.868 41.032C191.436 40.776 189.644 39.704 188.492 37.816C188.46 38.04 188.396 38.376 188.3 38.824C188.204 39.272 188.156 39.72 188.156 40.168C188.156 40.808 188.3 41.4 188.588 41.944C188.876 42.488 189.452 42.76 190.316 42.76ZM212.29 44.056C211.746 44.056 211.25 43.896 210.802 43.576C210.354 43.256 210.13 42.696 210.13 41.896C210.13 40.872 210.386 39.784 210.898 38.632C211.442 37.48 212.114 36.216 212.914 34.84C211.89 36.024 210.738 37.304 209.458 38.68C208.21 40.056 206.962 41.16 205.714 41.992C204.626 42.696 203.73 43.048 203.026 43.048C202.45 43.048 202.018 42.856 201.73 42.472C201.41 42.088 201.25 41.592 201.25 40.984C201.25 40.28 201.41 39.592 201.73 38.92C202.434 37.256 203.234 35.448 204.13 33.496C205.026 31.512 205.97 29.768 206.962 28.264C207.058 28.136 207.154 28.04 207.25 27.976C207.378 27.88 207.522 27.832 207.682 27.832C207.906 27.832 208.098 27.896 208.258 28.024C208.45 28.152 208.546 28.312 208.546 28.504C208.546 28.568 208.514 28.664 208.45 28.792C208.258 29.24 207.906 29.96 207.394 30.952C206.914 31.912 206.354 33.016 205.714 34.264C205.074 35.512 204.418 36.792 203.746 38.104C203.234 39.096 202.978 39.96 202.978 40.696C202.978 41.272 203.186 41.56 203.602 41.56C203.794 41.56 204.002 41.496 204.226 41.368C205.186 40.824 206.034 40.184 206.77 39.448C207.506 38.712 208.226 37.96 208.93 37.192C209.378 36.712 209.81 36.232 210.226 35.752C210.674 35.272 211.106 34.776 211.522 34.264C211.682 34.104 211.986 33.72 212.434 33.112C212.914 32.504 213.442 31.832 214.018 31.096C214.594 30.328 215.106 29.656 215.554 29.08C216.034 28.472 216.322 28.104 216.418 27.976C216.674 27.72 217.058 27.592 217.57 27.592C217.826 27.592 218.05 27.656 218.242 27.784C218.466 27.88 218.578 28.056 218.578 28.312C218.578 28.536 218.418 28.92 218.098 29.464C217.81 29.976 217.458 30.552 217.042 31.192C216.626 31.8 216.226 32.36 215.842 32.872C215.458 33.384 215.186 33.768 215.026 34.024C214.898 34.248 214.658 34.68 214.306 35.32C213.954 35.928 213.57 36.648 213.154 37.48C212.77 38.28 212.434 39.064 212.146 39.832C211.858 40.6 211.714 41.24 211.714 41.752C211.714 42.328 211.954 42.616 212.434 42.616C212.946 42.616 213.538 42.296 214.21 41.656C214.882 41.016 215.586 40.232 216.322 39.304C217.058 38.344 217.746 37.4 218.386 36.472C219.026 35.512 219.57 34.712 220.018 34.072C220.146 33.912 220.274 33.816 220.402 33.784C220.53 33.752 220.626 33.736 220.69 33.736C221.01 33.736 221.202 33.928 221.266 34.312C221.266 34.408 221.154 34.68 220.93 35.128C220.706 35.576 220.482 35.944 220.258 36.232C219.97 36.648 219.522 37.288 218.914 38.152C218.338 38.984 217.666 39.88 216.898 40.84C216.162 41.768 215.346 42.6 214.45 43.336C213.874 43.816 213.154 44.056 212.29 44.056ZM225.39 43.672C224.782 43.672 224.254 43.48 223.806 43.096C223.39 42.712 223.182 42.104 223.182 41.272C223.182 40.6 223.31 39.912 223.566 39.208C223.822 38.472 224.062 37.896 224.286 37.48C224.798 36.456 225.342 35.512 225.918 34.648C226.494 33.752 226.926 33.112 227.214 32.728C226.638 32.76 225.95 32.616 225.15 32.296C224.382 31.976 223.838 31.56 223.518 31.048C223.102 31.656 222.51 32.648 221.742 34.024C220.974 35.368 219.998 36.792 218.814 38.296C218.622 38.552 218.398 38.68 218.142 38.68C217.662 38.68 217.422 38.472 217.422 38.056C217.422 37.896 217.47 37.752 217.566 37.624C218.046 36.952 218.638 36.088 219.342 35.032C220.078 33.944 220.782 32.824 221.454 31.672C222.158 30.488 222.718 29.432 223.134 28.504C223.262 28.216 223.39 27.912 223.518 27.592C223.678 27.272 223.822 26.968 223.95 26.68C224.078 26.456 224.254 26.264 224.478 26.104C224.702 25.912 224.958 25.816 225.246 25.816C225.502 25.816 225.758 25.928 226.014 26.152C226.27 26.344 226.398 26.568 226.398 26.824C226.398 27.112 226.286 27.48 226.062 27.928C225.87 28.344 225.662 28.776 225.438 29.224C225.214 29.672 225.102 30.072 225.102 30.424C225.102 30.712 225.342 30.904 225.822 31C226.302 31.096 226.654 31.144 226.878 31.144C227.742 31.144 228.462 30.968 229.038 30.616C229.614 30.264 230.014 30.088 230.238 30.088C230.43 30.088 230.59 30.168 230.718 30.328C230.878 30.456 230.958 30.6 230.958 30.76C230.958 30.984 230.862 31.176 230.67 31.336C230.222 31.752 229.694 32.344 229.086 33.112C228.478 33.88 227.87 34.712 227.262 35.608C226.654 36.504 226.126 37.384 225.678 38.248C225.55 38.568 225.358 39.016 225.102 39.592C224.878 40.168 224.766 40.712 224.766 41.224C224.766 42.088 225.07 42.52 225.678 42.52C225.934 42.52 226.222 42.424 226.542 42.232C226.894 42.04 227.23 41.816 227.55 41.56C228.318 40.856 228.99 40.168 229.566 39.496C230.174 38.792 230.782 38.008 231.39 37.144C231.998 36.28 232.702 35.24 233.502 34.024C233.63 33.8 233.854 33.688 234.174 33.688C234.59 33.688 234.798 33.88 234.798 34.264C234.798 34.456 234.702 34.728 234.51 35.08C234.062 35.88 233.47 36.76 232.734 37.72C232.03 38.68 231.294 39.592 230.526 40.456C229.79 41.288 229.134 41.928 228.558 42.376C227.534 43.24 226.478 43.672 225.39 43.672Z" fill="#8953B5"/>
<path d="M0.500031 63.2815C199.5 51.5 231.5 46.2185 244 43" stroke="#8953B5" stroke-linecap="round"/>
</svg>
